<mxfile host="app.diagrams.net" modified="2024-01-20T09:32:18.176Z" agent="Mozilla/5.0 (Macintosh; Intel Mac OS X 10_15_7) AppleWebKit/537.36 (KHTML, like Gecko) Chrome/120.0.0.0 Whale/3.24.223.18 Safari/537.36" version="22.1.20" etag="VFSAVTVwxot0hHK9Lefl" type="github">
  <diagram name="페이지-1" id="c-1A3aX_q-X58KD7lkT5">
    <mxGraphModel>
      <root>
        <mxCell id="0" />
        <mxCell id="1" parent="0" />
      </root>
    </mxGraphModel>
  </diagram>
</mxfile>
